<?xml version="1.0" encoding="UTF-8" standalone="no"?>
<svg
   viewBox="0 0 474.12519 72.631008"
   version="1.1"
   id="svg1"
   xmlns="http://www.w3.org/2000/svg">
  <defs
     id="defs1" />
  <path
     id="path1"
     style="display:none;fill:#47d4ff;fill-opacity:1"
     d="M -0.00222839,-1.0583366 V -1.5562439e-8 H 79.34253 c 0,0 15.721183,0.687935695562439 25.11017,5.021931415562439 13.05699,6.0279926 18.07886,13.0582486 33.14485,20.0882416 7.33699,3.424997 23.09995,4.017855 23.09995,4.017855 h 152.73018 c 0,0 15.76196,-0.592858 23.09995,-4.017855 C 351.59262,18.08018 356.61446,11.049924 369.67145,5.0219314 379.06044,0.68993568 394.78162,-1.5562438e-8 394.78162,-1.5562438e-8 h 79.34579 V -1.0583366 h -79.34579 c 0,0 -15.72118,0.68993567 -25.11017,5.0219314 -13.05699,6.0279936 -18.07883,13.0582492 -33.14382,20.0882422 -7.33799,3.424996 -23.09995,4.017855 -23.09995,4.017855 H 160.6975 c 0,0 -15.76296,-0.592859 -23.09995,-4.017855 C 122.53156,17.021844 117.50969,9.9915884 104.4527,3.9635948 95.063713,-0.37040093 79.34253,-1.0583366 79.34253,-1.0583366 Z" />
  <path
     d="M -0.00240598,-1.5562439e-8 V 72.631004 H 474.12759 V -1.5562439e-8 h -79.346 c 0,0 -15.721,0.689999995562439 -25.11,5.02200001556244 -13.057,6.027999 -18.079,13.057999 -33.144,20.087999 -7.338,3.425 -23.1,4.018 -23.1,4.018 h -152.73 c 0,0 -15.763,-0.593 -23.1,-4.018 -15.066,-7.03 -20.088,-14.06 -33.145,-20.087999 C 95.063594,0.68799998 79.342594,-1.5562437e-8 79.342594,-1.5562437e-8 Z"
     id="path2"
     style="display:inline;fill:#d5d5d5;fill-opacity:1" />
</svg>
