<?xml version="1.0" encoding="UTF-8" standalone="no"?>
<svg
   viewBox="0 0 474.1248 30.186365"
   version="1.1"
   id="svg1"
   xmlns="http://www.w3.org/2000/svg">
   <defs
     id="defs1" />
  <path
     id="path1"
     style="display:inline;fill:#47d4ff;fill-opacity:1"
     d="M -0.00240598,0 V 1.0583366 H 79.342353 c 0,0 15.721183,0.6879357 25.110167,5.0219314 13.05699,6.027993 18.07886,13.058249 33.14485,20.088242 7.33699,3.424997 23.09995,4.017855 23.09995,4.017855 H 313.4275 c 0,0 15.76196,-0.592858 23.09995,-4.017855 15.06499,-7.029993 20.08683,-14.060249 33.14382,-20.088242 9.38899,-4.3319957 25.11017,-5.0219314 25.11017,-5.0219314 h 79.34579 V 0 h -79.34579 c 0,0 -15.72118,0.68993569 -25.11017,5.0219314 -13.05699,6.0279936 -18.07883,13.0582496 -33.14382,20.0882426 -7.33799,3.424996 -23.09995,4.017855 -23.09995,4.017855 H 160.69732 c 0,0 -15.76296,-0.592859 -23.09995,-4.017855 C 122.53138,18.080181 117.50951,11.049925 104.45252,5.0219314 95.063536,0.68793569 79.342353,0 79.342353,0 Z" />
  <path
     d="M -0.00258357,1.0583366 V 73.689341 H 474.12741 V 1.0583366 h -79.346 c 0,0 -15.721,0.69 -25.11,5.022 -13.057,6.0279994 -18.079,13.0579994 -33.144,20.0879994 -7.338,3.425 -23.1,4.018 -23.1,4.018 h -152.73 c 0,0 -15.763,-0.593 -23.1,-4.018 -15.066,-7.03 -20.088,-14.06 -33.145,-20.0879994 -9.388993,-4.334 -25.109993,-5.022 -25.109993,-5.022 z"
     id="path2"
     style="display:none;fill:#d5d5d5;fill-opacity:1" />
</svg>
