<svg width="512" height="512" viewBox="0 0 512 512" fill="none" xmlns="http://www.w3.org/2000/svg">
<g clip-path="url(#clip0_1_3)">
<path d="M3.85 362.115C2.70334 354.518 1.84334 345.918 1.27 336.315C0.696669 326.712 0.410001 316.893 0.410001 306.86C0.410001 295.25 0.696669 283.282 1.27 270.955C1.84334 258.628 2.56 246.517 3.42 234.62C4.42333 222.58 5.57 211.185 6.86 200.435C8.15 189.685 9.44 180.153 10.73 171.84L47.28 175.495C45.7033 182.662 44.1267 191.262 42.55 201.295C41.1167 211.328 39.8983 222.15 38.895 233.76C51.795 237.63 64.695 242.432 77.595 248.165C90.495 253.755 102.75 259.99 114.36 266.87C125.97 273.607 136.29 280.63 145.32 287.94L125.325 318.47C117.442 311.447 108.412 304.782 98.235 298.475C88.2017 292.025 77.81 286.148 67.06 280.845C56.4533 275.542 46.3483 271.027 36.745 267.3C36.4583 274.61 36.315 281.848 36.315 289.015C36.315 301.772 36.6733 314.242 37.39 326.425C38.1067 338.465 39.2533 350.003 40.83 361.04L3.85 362.115ZM198.64 257.625C197.78 245.442 195.845 233.187 192.835 220.86C189.825 208.533 186.528 197.425 182.945 187.535L215.41 176.785C218.993 185.958 221.932 194.272 224.225 201.725C226.518 209.178 228.382 216.703 229.815 224.3C231.248 231.753 232.395 240.21 233.255 249.67L198.64 257.625ZM224.87 364.05L192.62 341.045C208.673 328.718 221.788 316.32 231.965 303.85C242.285 291.237 250.455 278.48 256.475 265.58C262.495 252.537 266.938 239.278 269.805 225.805C272.672 212.332 274.678 198.5 275.825 184.31L313.235 194.415C311.802 213.908 307.788 233.832 301.195 254.185C294.602 274.395 284.998 293.96 272.385 312.88C259.915 331.657 244.077 348.713 224.87 364.05ZM145.535 270.955C144.818 266.655 143.887 261.495 142.74 255.475C141.737 249.312 140.447 242.862 138.87 236.125C137.437 229.388 135.788 222.867 133.925 216.56C132.062 210.253 129.912 204.663 127.475 199.79L159.08 189.9C164.67 202.083 168.97 213.908 171.98 225.375C174.99 236.698 177.14 249.168 178.43 262.785L145.535 270.955ZM384.185 353.515L350 345.56C352.723 332.23 356.378 317.18 360.965 300.41C365.552 283.64 370.568 266.655 376.015 249.455C369.135 251.605 362.327 253.898 355.59 256.335C348.853 258.772 342.332 261.208 336.025 263.645L323.34 232.04C333.66 227.453 344.41 223.297 355.59 219.57C366.77 215.843 377.95 212.762 389.13 210.325C391.997 202.298 394.863 194.63 397.73 187.32C400.74 179.867 403.607 172.987 406.33 166.68L443.095 174.85C441.088 178.577 439.01 182.948 436.86 187.965C434.71 192.982 432.417 198.5 429.98 204.52C434.28 204.233 438.508 204.09 442.665 204.09C466.315 204.09 483.658 208.39 494.695 216.99C505.875 225.447 511.465 239.923 511.465 260.42C511.465 269.02 510.605 278.05 508.885 287.51C507.165 296.827 504.943 306.072 502.22 315.245C499.497 324.275 496.558 332.732 493.405 340.615C490.252 348.355 487.17 354.948 484.16 360.395L451.48 344.7C456.353 336.673 460.367 328.36 463.52 319.76C466.673 311.16 469.11 302.847 470.83 294.82C472.55 286.793 473.768 279.698 474.485 273.535C475.202 267.228 475.56 262.427 475.56 259.13C475.56 252.537 473.84 247.735 470.4 244.725C466.96 241.715 462.588 239.78 457.285 238.92C451.982 238.06 446.463 237.63 440.73 237.63C437.003 237.63 433.133 237.845 429.12 238.275C425.25 238.562 421.237 238.992 417.08 239.565C412.493 253.182 407.978 267.085 403.535 281.275C399.235 295.322 395.365 308.652 391.925 321.265C388.628 333.878 386.048 344.628 384.185 353.515Z" fill="black"/>
</g>
<defs>
<clipPath id="clip0_1_3">
<rect width="512" height="512" fill="white"/>
</clipPath>
</defs>
</svg>
