<svg width="128" height="128" viewBox="0 0 128 128" fill="none" xmlns="http://www.w3.org/2000/svg">
<path d="M33.0886 43.6643C32.4244 44.4317 31.7077 45.199 30.9386 45.9664C30.2045 46.6699 29.4179 47.4053 28.5789 48.1727C27.7049 49.004 26.6562 49.9952 25.4326 51.1463C24.209 52.2334 22.8806 53.4484 21.4473 54.7914C20.014 56.0703 18.5807 57.4452 17.1473 58.9161C15.749 60.3869 14.4206 61.8577 13.162 63.3285C10.8547 66.1423 9.0194 69.052 7.656 72.0576C6.2926 75.0632 5.61091 78.3565 5.61091 81.9377C5.61091 85.6467 6.58975 88.5564 8.54745 90.6667C10.5052 92.777 13.4417 93.8321 17.3571 93.8321C19.2449 93.8321 21.2201 93.7042 23.2826 93.4484C25.3452 93.1287 27.3379 92.713 29.2606 92.2014C31.2183 91.6898 32.8963 91.0823 34.2947 90.3789L34.2423 101.314C32.8789 101.698 31.3232 102.082 29.5752 102.465C27.8273 102.849 25.9395 103.137 23.9119 103.329C21.9192 103.52 19.8042 103.616 17.5669 103.616C15.0498 103.616 12.7076 103.265 10.5401 102.561C8.40762 101.858 6.5548 100.707 4.98164 99.1079C3.40849 97.5092 2.18493 95.3989 1.31096 92.777C0.436986 90.0911 0 86.8297 0 82.9928C0 79.2838 0.436986 75.8625 1.31096 72.729C2.21989 69.5955 3.46093 66.6539 5.03408 63.9041C6.60723 61.1543 8.4251 58.5324 10.4877 56.0384C11.7812 54.4396 13.162 52.8729 14.6303 51.3381C16.0986 49.8034 17.5319 48.3325 18.9303 46.9257C20.3636 45.5188 21.692 44.2398 22.9156 43.0887C24.1391 41.9377 25.1704 40.9145 26.0094 40.0192C26.8484 39.1239 27.6001 38.2926 28.2643 37.5252C28.9635 36.7578 29.6102 35.8945 30.2045 34.9353L33.0886 43.6643ZM6.60723 24.9592C7.44625 29.052 8.3377 33.0807 9.28159 37.0456C10.2255 40.9464 11.1694 44.5915 12.1133 47.9808C13.0921 51.3701 13.9836 54.3757 14.7876 56.9976L10.173 61.9856C9.26411 59.2358 8.32022 56.0703 7.34137 52.4892C6.36252 48.8441 5.36619 45.0072 4.35238 40.9784C3.33858 36.9496 2.35973 32.9209 1.41584 28.8921L6.60723 24.9592Z" fill="black"/>
<path d="M35.8658 49.1319C36.8097 48.8122 37.806 48.3965 38.8548 47.8849C39.9385 47.3733 40.9698 46.8617 41.9486 46.3501C42.9974 45.7746 44.3783 44.9752 46.0913 43.952C47.8392 42.8649 49.7445 41.8098 51.8071 40.7866C53.9046 39.6994 56.0371 38.8042 58.2045 38.1007C60.372 37.3973 62.4171 37.0456 64.3398 37.0456C67.3463 37.0456 70.0556 38.0687 72.4678 40.1151C74.9149 42.1615 76.8551 45.1351 78.2884 49.036C79.7567 52.9369 80.4908 57.701 80.4908 63.3285C80.4908 67.8689 80.0364 71.9616 79.1274 75.6067C78.2185 79.2518 76.9076 82.5132 75.1946 85.3909C73.4816 88.2686 71.419 90.7306 69.0068 92.777C66.6296 94.7594 63.9378 96.3581 60.9313 97.5731C57.9598 98.7242 54.7611 99.4596 51.3351 99.7794L48.9754 89.8034C52.4713 89.6115 55.7574 88.972 58.8338 87.8849C61.9102 86.7978 64.637 85.199 67.0142 83.0887C69.3914 80.9784 71.2617 78.2926 72.6251 75.0312C73.9885 71.7058 74.6702 67.773 74.6702 63.2326C74.6702 59.9712 74.2682 57.0616 73.4641 54.5036C72.66 51.9456 71.454 49.8993 69.8459 48.3645C68.2727 46.8297 66.3674 46.0624 64.1301 46.0624C62.487 46.0624 60.6866 46.446 58.7289 47.2134C56.8062 47.9169 54.831 48.8122 52.8034 49.8993C50.8107 50.9864 48.8705 52.1695 46.9827 53.4484C45.1299 54.7274 43.4344 55.9424 41.8962 57.0935C40.393 58.1807 39.1694 59.1079 38.2255 59.8753L35.8658 49.1319Z" fill="black"/>
<path d="M100.522 25.1511C100.417 26.1103 100.295 27.1974 100.155 28.4125C100.015 29.6275 99.893 30.7466 99.7882 31.7698C99.6483 33.0488 99.4735 34.6475 99.2638 36.566C99.089 38.4205 98.8967 40.3709 98.687 42.4173C98.4772 44.3997 98.25 46.3181 98.0053 48.1727C97.6557 50.8585 97.2187 53.96 96.6943 57.4772C96.1699 60.9944 95.5581 64.7674 94.859 68.7962C94.1947 72.761 93.4256 76.8217 92.5517 80.9784C91.7127 85.0711 90.7862 89.0999 89.7724 93.0647C88.7936 96.9656 87.7273 100.611 86.5737 104L81.1725 100.067C82.3961 97.0616 83.5323 93.7362 84.581 90.0911C85.6298 86.3821 86.5912 82.5771 87.4652 78.6763C88.3391 74.7114 89.1257 70.8106 89.8249 66.9736C90.5241 63.1367 91.1184 59.5875 91.6078 56.3261C92.1322 53.0008 92.5342 50.1551 92.8139 47.789C93.3033 43.6962 93.6878 39.6035 93.9675 35.5108C94.2821 31.4181 94.422 27.5811 94.387 24L100.522 25.1511ZM118.614 34.8393C119.418 36.8217 120.274 39.3158 121.183 42.3213C122.092 45.3269 122.983 48.5244 123.857 51.9137C124.766 55.303 125.57 58.5644 126.27 61.6978C127.004 64.8313 127.58 67.5172 128 69.7554L122.809 74.1679C122.459 71.6099 121.952 68.7322 121.288 65.5348C120.659 62.2734 119.925 58.98 119.085 55.6547C118.281 52.3293 117.407 49.1958 116.464 46.2542C115.555 43.2486 114.646 40.7226 113.737 38.6763L118.614 34.8393ZM80.5957 45.5827C81.4697 45.6467 82.3087 45.6787 83.1128 45.6787C83.9518 45.6787 84.8083 45.6467 85.6822 45.5827C86.5213 45.5188 87.5525 45.4229 88.7761 45.295C89.9997 45.1031 91.3106 44.9113 92.709 44.7194C94.1423 44.4636 95.5581 44.2398 96.9565 44.048C98.3898 43.7922 99.7008 43.6003 100.889 43.4724C102.078 43.3445 103.039 43.2806 103.773 43.2806C105.486 43.2806 107.007 43.7922 108.336 44.8153C109.664 45.7746 110.713 47.5012 111.482 49.9952C112.286 52.4892 112.688 55.9744 112.688 60.4508C112.688 64.2238 112.601 68.3165 112.426 72.729C112.251 77.0775 111.936 81.2662 111.482 85.295C111.062 89.2598 110.468 92.5851 109.699 95.271C108.86 98.5963 107.759 100.803 106.395 101.89C105.067 103.041 103.476 103.616 101.624 103.616C100.645 103.616 99.5784 103.488 98.4248 103.233C97.2711 102.977 96.2573 102.657 95.3833 102.273L94.5443 92.2974C95.2435 92.6171 95.9951 92.9369 96.7992 93.2566C97.6382 93.5763 98.4248 93.8321 99.1589 94.024C99.893 94.1519 100.487 94.2158 100.942 94.2158C101.886 94.2158 102.707 93.9281 103.406 93.3525C104.141 92.713 104.752 91.466 105.242 89.6115C105.766 87.6291 106.203 85.0711 106.553 81.9377C106.902 78.8042 107.164 75.4468 107.339 71.8657C107.514 68.2846 107.601 64.8313 107.601 61.506C107.601 58.6922 107.374 56.6139 106.92 55.271C106.5 53.9281 105.888 53.0328 105.084 52.5851C104.28 52.0735 103.336 51.8177 102.253 51.8177C101.414 51.8177 100.26 51.9456 98.7918 52.2014C97.3585 52.3933 95.8203 52.6491 94.1773 52.9688C92.5342 53.2886 91.0135 53.6083 89.6151 53.9281C88.2168 54.1839 87.1156 54.4077 86.3115 54.5995C85.6473 54.7274 84.7908 54.9193 83.742 55.1751C82.7282 55.4309 81.8542 55.6867 81.1201 55.9424L80.5957 45.5827Z" fill="black"/>
</svg>
